<mxfile host="app.diagrams.net" modified="2024-02-22T00:40:10.893Z" agent="Mozilla/5.0 (Windows NT 10.0; Win64; x64) AppleWebKit/537.36 (KHTML, like Gecko) Chrome/121.0.0.0 Safari/537.36" etag="01F5_D54PtLf_nORdXF0" version="23.1.5" type="device">
  <diagram id="C5RBs43oDa-KdzZeNtuy" name="Page-1">
    <mxGraphModel dx="1494" dy="363" grid="1" gridSize="10" guides="1" tooltips="1" connect="1" arrows="1" fold="1" page="1" pageScale="1" pageWidth="827" pageHeight="1169" math="0" shadow="0">
      <root>
        <mxCell id="WIyWlLk6GJQsqaUBKTNV-0" />
        <mxCell id="WIyWlLk6GJQsqaUBKTNV-1" parent="WIyWlLk6GJQsqaUBKTNV-0" />
        <mxCell id="uwnOF_fT8MnG4abHCv9w-0" value="&lt;h1&gt;&lt;div style=&quot;background-color:#ffffff;padding:0px 0px 0px 2px;&quot;&gt;&lt;div style=&quot;font-family: Consolas; font-size: 28pt;&quot;&gt;&lt;div style=&quot;padding: 0px 0px 0px 2px;&quot;&gt;&lt;div style=&quot;font-size: 28pt;&quot;&gt;&lt;p style=&quot;margin:0;&quot;&gt;&amp;nbsp;&amp;nbsp;&amp;nbsp;&amp;nbsp;&lt;span style=&quot;border-color: var(--border-color); font-size: 28pt; font-weight: normal;&quot;&gt;&amp;nbsp;&amp;nbsp;&amp;nbsp;&amp;nbsp;&lt;/span&gt;&lt;span style=&quot;border-color: var(--border-color); font-size: 28pt; font-weight: normal;&quot;&gt;String&amp;nbsp;&lt;/span&gt;&lt;span style=&quot;border-color: var(--border-color); font-size: 28pt; font-weight: normal; color: rgb(106, 62, 62); background-color: rgb(212, 212, 212);&quot;&gt;gender&lt;/span&gt;&lt;span style=&quot;border-color: var(--border-color); font-size: 28pt; font-weight: normal;&quot;&gt;;&lt;/span&gt;&lt;span style=&quot;&quot;&gt;&lt;br&gt;&lt;/span&gt;&lt;/p&gt;&lt;p style=&quot;margin:0;&quot;&gt;&lt;span style=&quot;&quot;&gt;&amp;nbsp;&amp;nbsp;&amp;nbsp;&amp;nbsp;&lt;/span&gt;&lt;span style=&quot;&quot;&gt;&amp;nbsp;&amp;nbsp;&amp;nbsp;&amp;nbsp;&lt;/span&gt;char &lt;span style=&quot;color:#6a3e3e;&quot;&gt;sel&lt;/span&gt; = &lt;span style=&quot;color:#2a00ff;&quot;&gt;&#39;1&#39;&lt;/span&gt;;&lt;/p&gt;&lt;p style=&quot;margin:0;&quot;&gt;&lt;span style=&quot;font-size: 28pt; font-weight: normal;&quot;&gt;&amp;nbsp; &amp;nbsp;&amp;nbsp;&lt;/span&gt;&lt;span style=&quot;font-size: 28pt; font-weight: normal;&quot;&gt;&amp;nbsp;&amp;nbsp;&amp;nbsp;&amp;nbsp;&lt;/span&gt;&lt;span style=&quot;font-size: 28pt; font-weight: normal;&quot;&gt;if(&lt;/span&gt;&lt;span style=&quot;font-size: 28pt; font-weight: normal; color: rgb(63, 127, 95); text-decoration-line: underline; text-decoration-color: rgb(255, 128, 64); text-decoration-style: wavy;&quot;&gt;sel&lt;/span&gt;&lt;span style=&quot;font-size: 28pt; font-weight: normal; color: rgb(63, 127, 95);&quot;&gt;==&#39;1&#39; || &lt;/span&gt;&lt;span style=&quot;font-size: 28pt; font-weight: normal; color: rgb(63, 127, 95); text-decoration-line: underline; text-decoration-color: rgb(255, 128, 64); text-decoration-style: wavy;&quot;&gt;sel&lt;/span&gt;&lt;span style=&quot;font-size: 28pt; font-weight: normal; color: rgb(63, 127, 95);&quot;&gt;==&#39;3&#39;) {&lt;/span&gt;&lt;br&gt;&lt;/p&gt;&lt;/div&gt;&lt;/div&gt;&lt;p style=&quot;margin:0;&quot;&gt;&lt;span style=&quot;color:#3f7f5f;&quot;&gt;&lt;span style=&quot;&quot;&gt;&amp;nbsp;&amp;nbsp;&amp;nbsp;&amp;nbsp;&lt;/span&gt;&lt;span style=&quot;&quot;&gt;&amp;nbsp;&amp;nbsp;&amp;nbsp;&amp;nbsp;&lt;/span&gt;&lt;span style=&quot;&quot;&gt;&amp;nbsp;&amp;nbsp;&amp;nbsp;&amp;nbsp;&lt;/span&gt;gender = &quot;남성&quot;;&lt;/span&gt;&lt;/p&gt;&lt;p style=&quot;margin:0;&quot;&gt;&lt;span style=&quot;color:#3f7f5f;&quot;&gt;&lt;span style=&quot;&quot;&gt;&amp;nbsp;&amp;nbsp;&amp;nbsp;&amp;nbsp;&lt;/span&gt;&lt;span style=&quot;&quot;&gt;&amp;nbsp;&amp;nbsp;&amp;nbsp;&amp;nbsp;&lt;/span&gt;} else {&lt;/span&gt;&lt;/p&gt;&lt;p style=&quot;margin:0;&quot;&gt;&lt;span style=&quot;color:#3f7f5f;&quot;&gt;&lt;span style=&quot;&quot;&gt;&amp;nbsp;&amp;nbsp;&amp;nbsp;&amp;nbsp;&lt;/span&gt;&lt;span style=&quot;&quot;&gt;&amp;nbsp;&amp;nbsp;&amp;nbsp;&amp;nbsp;&lt;/span&gt;&lt;span style=&quot;&quot;&gt;&amp;nbsp;&amp;nbsp;&amp;nbsp;&amp;nbsp;&lt;/span&gt;gender = &quot;여성&quot;;&lt;/span&gt;&lt;/p&gt;&lt;p style=&quot;margin:0;&quot;&gt;&lt;span style=&quot;color:#3f7f5f;&quot;&gt;&lt;span style=&quot;&quot;&gt;&amp;nbsp;&amp;nbsp;&amp;nbsp;&amp;nbsp;&lt;/span&gt;&lt;span style=&quot;&quot;&gt;&amp;nbsp;&amp;nbsp;&amp;nbsp;&amp;nbsp;&lt;/span&gt;}&lt;/span&gt;&lt;/p&gt;&lt;/div&gt;&lt;/div&gt;&lt;/h1&gt;" style="text;html=1;spacing=5;spacingTop=-20;whiteSpace=wrap;overflow=hidden;rounded=0;" vertex="1" parent="WIyWlLk6GJQsqaUBKTNV-1">
          <mxGeometry x="-350" y="50" width="770" height="330" as="geometry" />
        </mxCell>
        <mxCell id="uwnOF_fT8MnG4abHCv9w-1" value="" style="rounded=1;whiteSpace=wrap;html=1;arcSize=50;" vertex="1" parent="WIyWlLk6GJQsqaUBKTNV-1">
          <mxGeometry x="530" y="75" width="100" height="30" as="geometry" />
        </mxCell>
        <mxCell id="uwnOF_fT8MnG4abHCv9w-2" value="Start/End" style="text;html=1;align=center;verticalAlign=middle;whiteSpace=wrap;rounded=0;" vertex="1" parent="WIyWlLk6GJQsqaUBKTNV-1">
          <mxGeometry x="660" y="75" width="60" height="30" as="geometry" />
        </mxCell>
        <mxCell id="uwnOF_fT8MnG4abHCv9w-3" value="" style="rounded=0;whiteSpace=wrap;html=1;" vertex="1" parent="WIyWlLk6GJQsqaUBKTNV-1">
          <mxGeometry x="520" y="130" width="120" height="30" as="geometry" />
        </mxCell>
        <mxCell id="uwnOF_fT8MnG4abHCv9w-4" value="실행문/대입문/선언문" style="text;html=1;align=center;verticalAlign=middle;whiteSpace=wrap;rounded=0;" vertex="1" parent="WIyWlLk6GJQsqaUBKTNV-1">
          <mxGeometry x="660" y="130" width="120" height="30" as="geometry" />
        </mxCell>
        <mxCell id="uwnOF_fT8MnG4abHCv9w-5" value="" style="shape=hexagon;perimeter=hexagonPerimeter2;whiteSpace=wrap;html=1;fixedSize=1;" vertex="1" parent="WIyWlLk6GJQsqaUBKTNV-1">
          <mxGeometry x="520" y="180" width="120" height="30" as="geometry" />
        </mxCell>
        <mxCell id="uwnOF_fT8MnG4abHCv9w-6" value="선언문/준비" style="text;html=1;align=center;verticalAlign=middle;whiteSpace=wrap;rounded=0;" vertex="1" parent="WIyWlLk6GJQsqaUBKTNV-1">
          <mxGeometry x="660" y="180" width="90" height="30" as="geometry" />
        </mxCell>
        <mxCell id="uwnOF_fT8MnG4abHCv9w-7" value="" style="shape=parallelogram;perimeter=parallelogramPerimeter;whiteSpace=wrap;html=1;fixedSize=1;" vertex="1" parent="WIyWlLk6GJQsqaUBKTNV-1">
          <mxGeometry x="520" y="230" width="120" height="30" as="geometry" />
        </mxCell>
        <mxCell id="uwnOF_fT8MnG4abHCv9w-8" value="입출력" style="text;html=1;align=center;verticalAlign=middle;whiteSpace=wrap;rounded=0;" vertex="1" parent="WIyWlLk6GJQsqaUBKTNV-1">
          <mxGeometry x="660" y="230" width="60" height="30" as="geometry" />
        </mxCell>
        <mxCell id="uwnOF_fT8MnG4abHCv9w-9" value="" style="shape=document;whiteSpace=wrap;html=1;boundedLbl=1;" vertex="1" parent="WIyWlLk6GJQsqaUBKTNV-1">
          <mxGeometry x="520" y="280" width="110" height="50" as="geometry" />
        </mxCell>
        <mxCell id="uwnOF_fT8MnG4abHCv9w-10" value="출력(인쇄)" style="text;html=1;align=center;verticalAlign=middle;whiteSpace=wrap;rounded=0;" vertex="1" parent="WIyWlLk6GJQsqaUBKTNV-1">
          <mxGeometry x="660" y="290" width="60" height="30" as="geometry" />
        </mxCell>
        <mxCell id="uwnOF_fT8MnG4abHCv9w-11" value="" style="rhombus;whiteSpace=wrap;html=1;" vertex="1" parent="WIyWlLk6GJQsqaUBKTNV-1">
          <mxGeometry x="520" y="340" width="110" height="40" as="geometry" />
        </mxCell>
        <mxCell id="uwnOF_fT8MnG4abHCv9w-12" value="비교/판단/분기" style="text;html=1;align=center;verticalAlign=middle;whiteSpace=wrap;rounded=0;" vertex="1" parent="WIyWlLk6GJQsqaUBKTNV-1">
          <mxGeometry x="660" y="345" width="90" height="30" as="geometry" />
        </mxCell>
        <mxCell id="uwnOF_fT8MnG4abHCv9w-13" value="Flowchart Symbol(순서도 기호)" style="text;html=1;align=center;verticalAlign=middle;whiteSpace=wrap;rounded=0;" vertex="1" parent="WIyWlLk6GJQsqaUBKTNV-1">
          <mxGeometry x="510" y="20" width="230" height="30" as="geometry" />
        </mxCell>
        <mxCell id="uwnOF_fT8MnG4abHCv9w-15" value="" style="shape=cylinder3;whiteSpace=wrap;html=1;boundedLbl=1;backgroundOutline=1;size=15;" vertex="1" parent="WIyWlLk6GJQsqaUBKTNV-1">
          <mxGeometry x="555" y="390" width="40" height="60" as="geometry" />
        </mxCell>
        <mxCell id="uwnOF_fT8MnG4abHCv9w-16" value="데이터베이스" style="text;html=1;align=center;verticalAlign=middle;whiteSpace=wrap;rounded=0;" vertex="1" parent="WIyWlLk6GJQsqaUBKTNV-1">
          <mxGeometry x="650" y="405" width="100" height="30" as="geometry" />
        </mxCell>
        <mxCell id="uwnOF_fT8MnG4abHCv9w-17" value="Vertical Container" style="swimlane;whiteSpace=wrap;html=1;" vertex="1" parent="WIyWlLk6GJQsqaUBKTNV-1">
          <mxGeometry x="540" y="470" width="90" height="80" as="geometry" />
        </mxCell>
        <mxCell id="uwnOF_fT8MnG4abHCv9w-18" value="순환/반복" style="text;html=1;align=center;verticalAlign=middle;whiteSpace=wrap;rounded=0;" vertex="1" parent="WIyWlLk6GJQsqaUBKTNV-1">
          <mxGeometry x="660" y="500" width="60" height="30" as="geometry" />
        </mxCell>
        <mxCell id="uwnOF_fT8MnG4abHCv9w-19" value="" style="ellipse;shape=cloud;whiteSpace=wrap;html=1;" vertex="1" parent="WIyWlLk6GJQsqaUBKTNV-1">
          <mxGeometry x="545" y="565" width="70" height="40" as="geometry" />
        </mxCell>
        <mxCell id="uwnOF_fT8MnG4abHCv9w-20" value="클라우드" style="text;html=1;align=center;verticalAlign=middle;whiteSpace=wrap;rounded=0;" vertex="1" parent="WIyWlLk6GJQsqaUBKTNV-1">
          <mxGeometry x="650" y="570" width="80" height="30" as="geometry" />
        </mxCell>
        <mxCell id="uwnOF_fT8MnG4abHCv9w-28" style="edgeStyle=orthogonalEdgeStyle;rounded=0;orthogonalLoop=1;jettySize=auto;html=1;exitX=0.5;exitY=1;exitDx=0;exitDy=0;entryX=0.5;entryY=0;entryDx=0;entryDy=0;" edge="1" parent="WIyWlLk6GJQsqaUBKTNV-1" source="uwnOF_fT8MnG4abHCv9w-21" target="uwnOF_fT8MnG4abHCv9w-22">
          <mxGeometry relative="1" as="geometry" />
        </mxCell>
        <mxCell id="uwnOF_fT8MnG4abHCv9w-21" value="성별 판별" style="rounded=1;whiteSpace=wrap;html=1;arcSize=50;" vertex="1" parent="WIyWlLk6GJQsqaUBKTNV-1">
          <mxGeometry x="-60" y="430" width="120" height="30" as="geometry" />
        </mxCell>
        <mxCell id="uwnOF_fT8MnG4abHCv9w-29" style="edgeStyle=orthogonalEdgeStyle;rounded=0;orthogonalLoop=1;jettySize=auto;html=1;exitX=0.5;exitY=1;exitDx=0;exitDy=0;" edge="1" parent="WIyWlLk6GJQsqaUBKTNV-1" source="uwnOF_fT8MnG4abHCv9w-22">
          <mxGeometry relative="1" as="geometry">
            <mxPoint x="0.011494252873717414" y="540" as="targetPoint" />
          </mxGeometry>
        </mxCell>
        <mxCell id="uwnOF_fT8MnG4abHCv9w-22" value="String gender;&lt;br&gt;char sel = &#39;1&#39;;" style="rounded=0;whiteSpace=wrap;html=1;" vertex="1" parent="WIyWlLk6GJQsqaUBKTNV-1">
          <mxGeometry x="-60" y="480" width="120" height="40" as="geometry" />
        </mxCell>
        <mxCell id="uwnOF_fT8MnG4abHCv9w-30" style="edgeStyle=orthogonalEdgeStyle;rounded=0;orthogonalLoop=1;jettySize=auto;html=1;exitX=0.5;exitY=1;exitDx=0;exitDy=0;entryX=0.5;entryY=0;entryDx=0;entryDy=0;" edge="1" parent="WIyWlLk6GJQsqaUBKTNV-1" source="uwnOF_fT8MnG4abHCv9w-23" target="uwnOF_fT8MnG4abHCv9w-24">
          <mxGeometry relative="1" as="geometry" />
        </mxCell>
        <mxCell id="uwnOF_fT8MnG4abHCv9w-31" style="edgeStyle=orthogonalEdgeStyle;rounded=0;orthogonalLoop=1;jettySize=auto;html=1;exitX=1;exitY=0.5;exitDx=0;exitDy=0;entryX=0.5;entryY=0;entryDx=0;entryDy=0;" edge="1" parent="WIyWlLk6GJQsqaUBKTNV-1" source="uwnOF_fT8MnG4abHCv9w-23" target="uwnOF_fT8MnG4abHCv9w-25">
          <mxGeometry relative="1" as="geometry" />
        </mxCell>
        <mxCell id="uwnOF_fT8MnG4abHCv9w-23" value="sel==&#39;1&#39; || sel==&#39;3&#39;" style="rhombus;whiteSpace=wrap;html=1;" vertex="1" parent="WIyWlLk6GJQsqaUBKTNV-1">
          <mxGeometry x="-80" y="541" width="160" height="40" as="geometry" />
        </mxCell>
        <mxCell id="uwnOF_fT8MnG4abHCv9w-32" style="edgeStyle=orthogonalEdgeStyle;rounded=0;orthogonalLoop=1;jettySize=auto;html=1;exitX=0.5;exitY=1;exitDx=0;exitDy=0;entryX=0.5;entryY=0;entryDx=0;entryDy=0;" edge="1" parent="WIyWlLk6GJQsqaUBKTNV-1" source="uwnOF_fT8MnG4abHCv9w-24" target="uwnOF_fT8MnG4abHCv9w-26">
          <mxGeometry relative="1" as="geometry" />
        </mxCell>
        <mxCell id="uwnOF_fT8MnG4abHCv9w-24" value="gender=&quot;남성&quot;" style="rounded=0;whiteSpace=wrap;html=1;" vertex="1" parent="WIyWlLk6GJQsqaUBKTNV-1">
          <mxGeometry x="-50" y="600" width="100" height="30" as="geometry" />
        </mxCell>
        <mxCell id="uwnOF_fT8MnG4abHCv9w-25" value="gender=&quot;여성&quot;" style="rounded=0;whiteSpace=wrap;html=1;" vertex="1" parent="WIyWlLk6GJQsqaUBKTNV-1">
          <mxGeometry x="80" y="600" width="100" height="30" as="geometry" />
        </mxCell>
        <mxCell id="uwnOF_fT8MnG4abHCv9w-26" value="gender" style="shape=document;whiteSpace=wrap;html=1;boundedLbl=1;" vertex="1" parent="WIyWlLk6GJQsqaUBKTNV-1">
          <mxGeometry x="-60" y="660" width="120" height="70" as="geometry" />
        </mxCell>
        <mxCell id="uwnOF_fT8MnG4abHCv9w-27" value="종료" style="rounded=1;whiteSpace=wrap;html=1;arcSize=50;" vertex="1" parent="WIyWlLk6GJQsqaUBKTNV-1">
          <mxGeometry x="-60" y="760" width="120" height="40" as="geometry" />
        </mxCell>
        <mxCell id="uwnOF_fT8MnG4abHCv9w-34" value="" style="endArrow=classic;html=1;rounded=0;" edge="1" parent="WIyWlLk6GJQsqaUBKTNV-1">
          <mxGeometry width="50" height="50" relative="1" as="geometry">
            <mxPoint x="130" y="649" as="sourcePoint" />
            <mxPoint x="10" y="649" as="targetPoint" />
          </mxGeometry>
        </mxCell>
        <mxCell id="uwnOF_fT8MnG4abHCv9w-35" value="" style="endArrow=none;html=1;rounded=0;entryX=0.5;entryY=1;entryDx=0;entryDy=0;" edge="1" parent="WIyWlLk6GJQsqaUBKTNV-1" target="uwnOF_fT8MnG4abHCv9w-25">
          <mxGeometry width="50" height="50" relative="1" as="geometry">
            <mxPoint x="130" y="650" as="sourcePoint" />
            <mxPoint x="60" y="680" as="targetPoint" />
          </mxGeometry>
        </mxCell>
        <mxCell id="uwnOF_fT8MnG4abHCv9w-36" value="" style="endArrow=classic;html=1;rounded=0;exitX=0.471;exitY=0.881;exitDx=0;exitDy=0;exitPerimeter=0;entryX=0.477;entryY=0.002;entryDx=0;entryDy=0;entryPerimeter=0;" edge="1" parent="WIyWlLk6GJQsqaUBKTNV-1" source="uwnOF_fT8MnG4abHCv9w-26" target="uwnOF_fT8MnG4abHCv9w-27">
          <mxGeometry width="50" height="50" relative="1" as="geometry">
            <mxPoint x="10" y="730" as="sourcePoint" />
            <mxPoint x="60" y="680" as="targetPoint" />
          </mxGeometry>
        </mxCell>
      </root>
    </mxGraphModel>
  </diagram>
</mxfile>
